<svg width="310" height="93" viewBox="0 0 310 93" fill="none" xmlns="http://www.w3.org/2000/svg">
<path fill-rule="evenodd" clip-rule="evenodd" d="M59.6417 0L37.3503 23.0564H18.2221L0 41.8815L22.4382 41.8832V65L44.8283 41.8752H63.7908L82 23.0564H59.6417V0ZM55.0623 11.4479V23.0706H43.8097L55.0623 11.4479ZM58.4822 27.8095H70.9363L61.9176 37.1311H49.4695L58.4822 27.8095ZM39.2192 27.8095H52.0022L42.9869 37.1311H30.2073L39.2192 27.8095ZM20.0772 27.8095H32.7151L23.6964 37.1311H11.0645L20.0772 27.8095ZM26.9824 41.8744H38.3681L26.9824 53.6621V41.8744Z" fill="#1D1D1B"/>
<path fill-rule="evenodd" clip-rule="evenodd" d="M99.8722 58.1475V59.5704H97.9463V61.5099H99.8722V69.7638H102.477V61.5099H104.751V59.5704H102.477V58.3026C102.477 57.5114 102.749 56.7403 103.622 56.7403C104.189 56.7403 104.514 56.9556 104.751 57.0967L104.965 54.9001C104.462 54.7816 103.722 54.6797 103.06 54.6797C100.997 54.6797 99.8722 56.1069 99.8722 58.1475Z" fill="#1D1D1B"/>
<path fill-rule="evenodd" clip-rule="evenodd" d="M112.721 64.556C112.721 65.8612 112.311 67.9419 110.426 67.9419C108.754 67.9419 108.732 66.2585 108.732 65.0099V59.5703H106.133V66.0015C106.133 68.2965 107.16 69.999 109.531 69.999C110.896 69.999 112.021 69.3665 112.818 68.3801H112.859V69.7647H115.325V59.5703H112.721V64.556Z" fill="#1D1D1B"/>
<path fill-rule="evenodd" clip-rule="evenodd" d="M162.715 67.942C161.723 67.942 161.489 67.1282 161.489 66.2586V61.51H163.801V59.5704H161.489V56.6812L158.881 57.5316V59.5704H156.959V61.51H158.881V66.696C158.881 68.7122 160.012 69.9991 162.052 69.9991C162.834 69.9991 163.433 69.9199 163.978 69.7639L163.902 67.664C163.623 67.8444 163.181 67.942 162.715 67.942Z" fill="#1D1D1B"/>
<path fill-rule="evenodd" clip-rule="evenodd" d="M145.687 64.5568C145.687 65.8621 145.278 67.9419 143.394 67.9419C141.727 67.9419 141.705 66.2576 141.705 65.0099V59.5703H139.102V66.0015C139.102 68.2974 140.133 69.9999 142.502 69.9999C143.862 69.9999 144.99 69.3665 145.788 68.3801H145.825V69.7638H148.296V59.5703H145.687V64.5568Z" fill="#1D1D1B"/>
<path fill-rule="evenodd" clip-rule="evenodd" d="M151.676 58.1475V59.5704H149.754V61.5099H151.676V69.7638H154.278V61.5099H156.557V59.5704H154.278V58.3026C154.278 57.5114 154.553 56.7403 155.426 56.7403C155.994 56.7403 156.32 56.9556 156.557 57.0967L156.77 54.9001C156.259 54.7816 155.522 54.6797 154.862 54.6797C152.805 54.6797 151.676 56.1069 151.676 58.1475Z" fill="#1D1D1B"/>
<path fill-rule="evenodd" clip-rule="evenodd" d="M298.76 61.8828H298.724V59.5703H296.41V69.7638H299.014V66.0233C299.014 64.5568 299.014 61.8645 301.136 61.8645C301.597 61.8645 302.065 61.9438 302.299 62.0875V59.4083C302.028 59.3359 301.757 59.3359 301.508 59.3359C299.953 59.3359 298.88 60.9374 298.76 61.8828Z" fill="#1D1D1B"/>
<mask id="mask0_603_72" style="mask-type:alpha" maskUnits="userSpaceOnUse" x="0" y="1" width="310" height="69">
<path fill-rule="evenodd" clip-rule="evenodd" d="M0 70H310V1H0V70Z" fill="white"/>
</mask>
<g mask="url(#mask0_603_72)">
<path fill-rule="evenodd" clip-rule="evenodd" d="M111.613 57.7093H113.868V55.416H111.613V57.7093Z" fill="#1D1D1B"/>
<path fill-rule="evenodd" clip-rule="evenodd" d="M107.608 57.7093H109.866V55.416H107.608V57.7093Z" fill="#1D1D1B"/>
<path fill-rule="evenodd" clip-rule="evenodd" d="M132.981 55.9465H130.256V69.7647H138.25V67.5864H132.981V55.9465Z" fill="#1D1D1B"/>
<path fill-rule="evenodd" clip-rule="evenodd" d="M120.069 61.8828H120.031V59.5703H117.718V69.7638H120.326V66.0233C120.326 64.5568 120.326 61.8645 122.44 61.8645C122.911 61.8645 123.377 61.9438 123.607 62.0875V59.4083C123.336 59.3359 123.064 59.3359 122.813 59.3359C121.255 59.3359 120.184 60.9374 120.069 61.8828Z" fill="#1D1D1B"/>
<path fill-rule="evenodd" clip-rule="evenodd" d="M164.68 65.5284H169.788V63.3501H164.68V65.5284Z" fill="#1D1D1B"/>
<path fill-rule="evenodd" clip-rule="evenodd" d="M279.498 67.1517C279.086 67.7041 278.464 68.0605 277.67 68.0605C276.736 68.0605 276.02 67.6858 276.02 66.8128C276.02 65.2505 277.748 65.0545 278.914 65.0545H280.041C280.041 65.8447 279.923 66.5758 279.498 67.1517ZM282.413 64.9351V63.6281C282.413 60.6195 281.146 59.3369 278.099 59.3369C276.985 59.3369 275.628 59.6305 274.616 60.1072L274.692 62.3795C275.567 61.706 276.676 61.2704 277.785 61.2704C279.323 61.2704 280.041 61.8262 280.041 63.4678H278.603C277.513 63.4678 276.226 63.5706 275.239 64.0655C274.247 64.5569 273.529 65.4465 273.529 66.9722C273.529 68.9118 275.261 69.9991 277.035 69.9991C278.217 69.9991 279.517 69.3666 280.113 68.2391H280.158C280.173 68.5536 280.173 69.2272 280.275 69.7639H282.573C282.506 68.971 282.471 68.26 282.451 67.4863C282.43 66.7326 282.413 65.9615 282.413 64.9351Z" fill="#1D1D1B"/>
<path fill-rule="evenodd" clip-rule="evenodd" d="M268.201 59.5712H266.277V61.5099H268.201V69.7638H270.81V61.5099H273.083V59.5712H270.81V58.3035C270.81 57.5114 271.077 56.7412 271.953 56.7412C272.52 56.7412 272.847 56.9556 273.083 57.0967L273.295 54.9001C272.79 54.7816 272.05 54.6797 271.388 54.6797C269.33 54.6797 268.201 56.106 268.201 58.1475V59.5712Z" fill="#1D1D1B"/>
<path fill-rule="evenodd" clip-rule="evenodd" d="M261.9 59.3359C260.678 59.3359 259.376 59.9066 258.772 61.1317C258.207 59.8683 257.216 59.3359 255.82 59.3359C254.845 59.3359 253.657 59.7472 252.846 60.9932H252.81V59.5712H250.377V69.7647H252.978V64.8139C252.978 63.486 253.192 61.3922 254.92 61.3922C256.423 61.3922 256.423 62.7341 256.423 63.6855V69.7647H259.024V64.8139C259.024 63.486 259.243 61.3922 260.97 61.3922C262.464 61.3922 262.464 62.7341 262.464 63.6855V69.7647H265.072V63.3318C265.072 61.055 264.37 59.3359 261.9 59.3359Z" fill="#1D1D1B"/>
<path fill-rule="evenodd" clip-rule="evenodd" d="M290.519 59.3368C289.16 59.3368 288.032 59.9667 287.373 60.9548H287.333V54.9175H284.726V69.7638H287.333V64.7729C287.333 63.4677 287.743 61.3913 289.627 61.3913C291.3 61.3913 291.315 63.0756 291.315 64.3215V69.7638H293.924V63.3317C293.924 61.0332 292.892 59.3368 290.519 59.3368Z" fill="#1D1D1B"/>
<path fill-rule="evenodd" clip-rule="evenodd" d="M309.918 67.6649C309.647 67.8444 309.203 67.9411 308.734 67.9411C307.745 67.9411 307.511 67.129 307.511 66.2586V61.51H309.824V59.5713H307.511V56.6812L304.908 57.5316V59.5713H302.98V61.51H304.908V66.6969C304.908 68.7122 306.034 70 308.072 70C308.857 70 309.453 69.9199 310 69.7639L309.918 67.6649Z" fill="#1D1D1B"/>
<path fill-rule="evenodd" clip-rule="evenodd" d="M204.243 67.9418C202.53 67.9418 202.04 66.0406 202.04 64.637C202.04 63.2699 202.512 61.3922 204.204 61.3922C205.873 61.3922 206.535 63.2115 206.535 64.637C206.535 66.0816 205.966 67.9418 204.243 67.9418ZM206.547 60.7544H206.512C205.737 59.7846 204.819 59.3368 203.519 59.3368C200.446 59.3368 199.322 61.8261 199.322 64.637C199.322 67.4278 200.446 69.999 203.519 69.999C204.746 69.999 205.814 69.6052 206.591 68.6136H206.63V69.7646H209.159V54.9175H206.547V60.7544Z" fill="#1D1D1B"/>
<path fill-rule="evenodd" clip-rule="evenodd" d="M183.302 64.5568C183.302 65.8621 182.894 67.9419 181.013 67.9419C179.337 67.9419 179.318 66.2576 179.318 65.0099V59.5703H176.714V66.0015C176.714 68.2974 177.744 69.9999 180.112 69.9999C181.475 69.9999 182.599 69.3665 183.401 68.3801H183.441V69.7638H185.908V59.5703H183.302V64.5568Z" fill="#1D1D1B"/>
<path fill-rule="evenodd" clip-rule="evenodd" d="M194.13 59.3369C192.766 59.3369 191.658 59.7848 190.843 60.9549H190.805V59.5704H188.34V69.7639H190.945V64.7739C190.945 63.4678 191.351 61.3915 193.239 61.3915C194.913 61.3915 194.927 63.0748 194.927 64.3217V69.7639H197.536V63.3319C197.536 61.0342 196.502 59.3369 194.13 59.3369Z" fill="#1D1D1B"/>
<path fill-rule="evenodd" clip-rule="evenodd" d="M245.378 64.5568C245.378 65.8621 244.97 67.9419 243.084 67.9419C241.411 67.9419 241.393 66.2576 241.393 65.0099V59.5703H238.786V66.0015C238.786 68.2974 239.818 69.9999 242.187 69.9999C243.552 69.9999 244.673 69.3665 245.474 68.3801H245.515V69.7638H247.982V59.5703H245.378V64.5568Z" fill="#1D1D1B"/>
<path fill-rule="evenodd" clip-rule="evenodd" d="M233.891 67.1517C233.48 67.7041 232.86 68.0605 232.064 68.0605C231.127 68.0605 230.409 67.6858 230.409 66.8128C230.409 65.2505 232.141 65.0545 233.308 65.0545H234.43C234.43 65.8447 234.316 66.5758 233.891 67.1517ZM236.802 64.9351V63.6281C236.802 60.6195 235.541 59.3369 232.488 59.3369C231.381 59.3369 230.019 59.6305 229.009 60.1072L229.086 62.3795C229.965 61.706 231.071 61.2704 232.18 61.2704C233.712 61.2704 234.43 61.8262 234.43 63.4678H232.995C231.908 63.4678 230.624 63.5706 229.627 64.0655C228.641 64.5569 227.918 65.4465 227.918 66.9722C227.918 68.9118 229.65 69.9991 231.417 69.9991C232.599 69.9991 233.907 69.3666 234.509 68.2391H234.547C234.566 68.5536 234.566 69.2272 234.661 69.7639H236.962C236.901 68.971 236.864 68.26 236.844 67.4863C236.824 66.7326 236.802 65.9615 236.802 64.9351Z" fill="#1D1D1B"/>
<path fill-rule="evenodd" clip-rule="evenodd" d="M220.554 61.8462H219.657V58.1257H220.554C221.916 58.1257 223.433 58.2642 223.433 59.9275C223.433 61.6484 221.889 61.8462 220.554 61.8462ZM223.465 62.9353V62.8952C225.198 62.6582 226.264 61.312 226.264 59.687C226.264 55.8507 222.789 55.9465 219.873 55.9465H216.936V69.7646H219.657V64.0244H220.529C221.677 64.0244 222.029 64.4191 222.421 65.4473L224.05 69.7646H227.082L224.906 64.3608C224.629 63.7465 224.204 62.9945 223.465 62.9353Z" fill="#1D1D1B"/>
<path fill-rule="evenodd" clip-rule="evenodd" d="M130.591 45.4123V46.796H133.059V36.6042H130.454V41.596C130.454 42.8995 130.047 44.9749 128.161 44.9749C126.491 44.9749 126.469 43.2933 126.469 42.0482V36.6042H123.864V43.038C123.864 45.3322 124.896 47.033 127.266 47.033C128.629 47.033 129.756 46.4004 130.555 45.4123H130.591Z" fill="#1D1D1B"/>
<path fill-rule="evenodd" clip-rule="evenodd" d="M205.138 44.6221H198.563L204.999 35.239V32.9832H195.982V35.1614H202.107L195.723 44.5402V46.7961H205.138V44.6221Z" fill="#1D1D1B"/>
<path fill-rule="evenodd" clip-rule="evenodd" d="M175.84 38.3052C177.301 38.3052 177.881 39.4117 177.959 40.7004H173.527C173.641 39.3385 174.383 38.3052 175.84 38.3052ZM179.705 44.0645C178.738 44.623 177.647 45.0962 176.38 45.0962C174.769 45.0962 173.641 44.1639 173.527 42.5223H180.442C180.442 38.9578 179.396 36.3647 175.684 36.3647C172.574 36.3647 171.032 38.7983 171.032 41.7503C171.032 45.0962 172.959 47.0331 176.269 47.0331C177.672 47.0331 178.756 46.7577 179.705 46.2236V44.0645Z" fill="#1D1D1B"/>
<path fill-rule="evenodd" clip-rule="evenodd" d="M162.637 41.8095C162.637 40.5043 163.05 38.4262 164.928 38.4262C166.604 38.4262 166.621 40.1087 166.621 41.3582V46.796H169.232V40.3684C169.232 38.069 168.201 36.3647 165.825 36.3647C164.471 36.3647 163.341 37.0016 162.678 37.9879H162.637V31.9541H160.032V46.796H162.637V41.8095Z" fill="#1D1D1B"/>
<path fill-rule="evenodd" clip-rule="evenodd" d="M219.737 41.8096C219.737 40.5043 220.145 38.4263 222.031 38.4263C223.704 38.4263 223.723 40.1088 223.723 41.3582V46.7961H226.328V40.3684C226.328 38.069 225.3 36.3647 222.921 36.3647C221.567 36.3647 220.455 36.8222 219.64 37.988H219.603V36.6052H217.135V46.7961H219.737V41.8096Z" fill="#1D1D1B"/>
<path fill-rule="evenodd" clip-rule="evenodd" d="M252.3 46.7961V36.6052H249.698V41.5961C249.698 42.8996 249.289 44.975 247.403 44.975C245.733 44.975 245.712 43.2934 245.712 42.0483V36.6052H243.103V43.0381C243.103 45.3323 244.137 47.0331 246.511 47.0331C247.87 47.0331 248.994 46.4014 249.795 45.4124H249.831V46.7961H252.3Z" fill="#1D1D1B"/>
<path fill-rule="evenodd" clip-rule="evenodd" d="M155.933 47.0331C157 47.0331 157.781 46.9355 158.537 46.6976L158.421 44.5028C157.974 44.7015 157.157 44.975 156.419 44.975C154.594 44.975 153.716 43.5322 153.716 41.6519C153.716 39.7315 154.75 38.4263 156.359 38.4263C157.157 38.4263 157.664 38.5831 158.129 38.7983L158.36 36.7037C157.645 36.485 156.885 36.3647 155.834 36.3647C152.704 36.3647 150.998 38.7007 150.998 41.6519C150.998 44.7563 152.651 47.0331 155.933 47.0331Z" fill="#1D1D1B"/>
<path fill-rule="evenodd" clip-rule="evenodd" d="M240.655 38.9027C241.121 38.9027 241.588 38.9777 241.82 39.1214V36.4439C241.551 36.3655 241.28 36.3655 241.028 36.3655C239.47 36.3655 238.397 37.9687 238.285 38.9193H238.247V36.6042H235.929V46.7959H238.54V43.0563C238.54 41.596 238.54 38.9027 240.655 38.9027Z" fill="#1D1D1B"/>
<path fill-rule="evenodd" clip-rule="evenodd" d="M229.398 43.7299C229.398 45.7488 230.524 47.0331 232.567 47.0331C233.344 47.0331 233.947 46.9573 234.494 46.797L234.412 44.7015C234.141 44.8783 233.697 44.975 233.232 44.975C232.236 44.975 232.006 44.1647 232.006 43.2934V38.543H234.318V36.6052H232.006V33.7151L229.398 34.5681V36.6052H227.478V38.543H229.398V43.7299Z" fill="#1D1D1B"/>
<path fill-rule="evenodd" clip-rule="evenodd" d="M102.597 35.1614H104.112C106.386 35.1614 108.582 36.8814 108.582 39.89C108.582 42.8995 106.386 44.6221 104.112 44.6221H102.597V35.1614ZM111.421 39.89C111.421 34.4086 107.748 32.9832 103.587 32.9832H99.8721V46.7961H103.587C107.748 46.7961 111.421 45.3732 111.421 39.89Z" fill="#1D1D1B"/>
<path fill-rule="evenodd" clip-rule="evenodd" d="M136.365 43.7299C136.365 45.7488 137.492 47.0331 139.53 47.0331C140.306 47.0331 140.912 46.9573 141.459 46.797L141.377 44.7015C141.108 44.8783 140.662 44.975 140.194 44.975C139.205 44.975 138.969 44.1647 138.969 43.2934V38.543H141.281V36.6052H138.969V33.7151L136.365 34.5681V36.6052H134.44V38.543H136.365V43.7299Z" fill="#1D1D1B"/>
<path fill-rule="evenodd" clip-rule="evenodd" d="M145.401 39.4334C145.401 38.5647 146.238 38.305 146.936 38.305C147.89 38.305 148.471 38.4645 149.269 38.7415L149.441 36.7419C148.627 36.565 147.83 36.3655 146.606 36.3655C144.567 36.3655 142.683 37.337 142.683 39.5344C142.683 43.2131 147.211 41.8495 147.211 43.8492C147.211 44.839 146.155 45.0951 145.498 45.0951C144.603 45.0951 143.751 44.839 142.935 44.4225L142.778 46.6008C143.729 46.8569 144.741 47.0321 145.733 47.0321C147.851 47.0321 149.929 46.085 149.929 43.7106C149.929 40.0302 145.401 41.0566 145.401 39.4334Z" fill="#1D1D1B"/>
<path fill-rule="evenodd" clip-rule="evenodd" d="M117.604 38.3052C119.061 38.3052 119.644 39.4117 119.724 40.7004H115.29C115.41 39.3385 116.147 38.3052 117.604 38.3052ZM118.033 47.0331C119.43 47.0331 120.521 46.7577 121.477 46.2236V44.0645C120.501 44.623 119.414 45.0962 118.15 45.0962C116.534 45.0962 115.41 44.1639 115.29 42.5223H122.213C122.213 38.9578 121.164 36.3647 117.447 36.3647C114.338 36.3647 112.801 38.7983 112.801 41.7503C112.801 45.0962 114.722 47.0331 118.033 47.0331Z" fill="#1D1D1B"/>
<path fill-rule="evenodd" clip-rule="evenodd" d="M266.706 40.7213V46.7961H269.309V40.3684C269.309 38.0882 268.609 36.3647 266.142 36.3647C264.918 36.3647 263.615 36.9424 263.011 38.1692C262.452 36.905 261.453 36.3647 260.059 36.3647C259.083 36.3647 257.899 36.7847 257.082 38.0324H257.047V36.6052H254.613V46.7961H257.217V41.8488C257.217 40.5226 257.436 38.4263 259.165 38.4263C260.662 38.4263 260.662 39.7716 260.662 40.7213V46.7961H263.265V41.8488C263.265 40.5226 263.482 38.4263 265.21 38.4263C266.706 38.4263 266.706 39.7716 266.706 40.7213Z" fill="#1D1D1B"/>
<path fill-rule="evenodd" clip-rule="evenodd" d="M184.336 39.4335C184.336 38.5648 185.175 38.3052 185.873 38.3052C186.823 38.3052 187.408 38.4646 188.2 38.7417L188.38 36.7429C187.566 36.5651 186.761 36.3647 185.545 36.3647C183.503 36.3647 181.615 37.338 181.615 39.5354C181.615 43.2133 186.144 41.8488 186.144 43.8484C186.144 44.8391 185.092 45.0962 184.435 45.0962C183.539 45.0962 182.683 44.8391 181.865 44.4218L181.707 46.6C182.663 46.8571 183.674 47.0331 184.666 47.0331C186.787 47.0331 188.865 46.0851 188.865 43.7116C188.865 40.0304 184.336 41.0559 184.336 39.4335Z" fill="#1D1D1B"/>
<path fill-rule="evenodd" clip-rule="evenodd" d="M208.499 40.7004C208.617 39.3385 209.355 38.3052 210.817 38.3052C212.273 38.3052 212.856 39.4117 212.931 40.7004H208.499ZM210.658 36.3647C207.549 36.3647 206.009 38.7983 206.009 41.7503C206.009 45.0962 207.937 47.0331 211.245 47.0331C212.643 47.0331 213.728 46.7577 214.685 46.2236V44.0645C213.707 44.623 212.621 45.0962 211.36 45.0962C209.746 45.0962 208.617 44.1639 208.499 42.5223H215.421C215.421 38.9578 214.374 36.3647 210.658 36.3647Z" fill="#1D1D1B"/>
<path fill-rule="evenodd" clip-rule="evenodd" d="M73.2371 61.8454H72.3409V58.1232H73.2371C74.5955 58.1232 76.1132 58.2643 76.1132 59.9251C76.1132 61.6459 74.5767 61.8454 73.2371 61.8454ZM76.1508 62.9328V62.8936C77.8816 62.6566 78.9525 61.3113 78.9525 59.6872C78.9525 55.8482 75.4695 55.9458 72.5532 55.9458H69.6172V69.7622H72.3409V64.0237H73.2149C74.361 64.0237 74.7102 64.4184 75.1014 65.4457L76.7346 69.7622H79.7673L77.5915 64.3574C77.3184 63.7449 76.8904 62.9929 76.1508 62.9328Z" fill="#1D1D1B"/>
<path fill-rule="evenodd" clip-rule="evenodd" d="M48.9929 67.5848H47.4787V58.1232H48.9929C51.2673 58.1232 53.4654 59.8467 53.4654 62.8544C53.4654 65.8631 51.2673 67.5848 48.9929 67.5848ZM48.4691 55.9458H44.7559V69.7622H48.4691C52.6283 69.7622 56.3038 68.3367 56.3038 62.8544C56.3038 57.3739 52.6283 55.9458 48.4691 55.9458Z" fill="#1D1D1B"/>
<path fill-rule="evenodd" clip-rule="evenodd" d="M61.9101 55.9458H59.1864V69.7622H67.1778V67.5848H61.9101V55.9458Z" fill="#1D1D1B"/>
</g>
</svg>
